<svg fill="none" height="288" viewBox="0 0 288 288" width="288" xmlns="http://www.w3.org/2000/svg" xmlns:xlink="http://www.w3.org/1999/xlink"><clipPath id="a"><rect height="288" rx="24" width="288"/></clipPath><g clip-path="url(#a)"><path d="m288 0h-288v288h288z" fill="#789a3d"/><g fill="#fff"><path d="m60 267.7c46.4-20.2 52-43.2 52-43.2v-31.9l-52 33z"/><path d="m187.9 82.2-47.6 29.9s-14.1 7.3-17.3 21.6c0 .2 38.8 24.3 38.8 24.3l37.7-24.4s10.4-6.6 10.4-21.6v-49.4c.1 0-7.4 9.1-22 19.6z"/><path d="m187.9 236.5-47.6-29.9s-13.7-7.1-17.2-20.9c0-.2 38.7-24.6 38.9-24.7l37.5 24.2s10.4 6.6 10.4 21.6v49.3c.1 0-7.4-9.2-22-19.6z"/><path d="m159.4 159.3s-33-20.4-37-22.8c-.1.9-.2 1.9-.2 2.9v39.8c0 1.3.1 2.5.3 3.7z"/><path d="m60 222.6 52-33v-59.5l-52-32.3z"/><path d="m60 20.3v74.5l52 32.2v-58.4s0-34.1-52-48.3z"/><path d="m230.2 44.3h-3v-15.6h-5.3v-2.5h13.6v2.5h-5.3z"/><path d="m246.1 44.3-5.2-15.1h-.1c.1 2.2.2 4.3.2 6.3v8.8h-2.7v-18.1h4.2l5 14.4h.1l5.2-14.4h4.2v18.1h-3v-8.9c0-.9 0-2.1.1-3.5 0-1.4.1-2.3.1-2.6h-.1l-5.4 15.1h-2.6z"/></g><path d="m202 17h69v35h-69z" fill="#789a3d"/></g></svg>